<svg xmlns="http://www.w3.org/2000/svg" fill="none" viewBox="0 0 165 91"><path fill="#FEEEE9" d="M141.5 89.507c0-34-27.6-61.5-61.5-61.5-34 0-61.5 27.6-61.5 61.5v.1h123v-.1z"/><path stroke="#FDE1D6" d="M139.6 89.407v-.1c0-34-27.6-61.5-61.5-61.5-34 0-61.5 27.6-61.5 61.5v.1M136.66 46.323l-1.718-7.516m4.398 8.649-2.521-10.457"/><path stroke="#FDD9C4" d="M20.3 51.107a1.9 1.9 0 1 0 0-3.8 1.9 1.9 0 0 0 0 3.8z"/><path fill="#FF8B6A" d="M59.153 35.2c-1.4.3-2-.7-2.2-1.2-.1-.2-.3-.4-.6-.3l-1.4.3c-.2 0-.4.3-.4.5 0 .6-.1 1.6-1.5 1.9-1.2.3-1.8-.6-2.1-1.2-.1-.2-.3-.3-.5-.3-.4.1-1 .2-1.5.3-.2 0-.4.3-.4.5 0 .9-.6 1.7-1.5 1.9s-1.8-.3-2.1-1.1c-.1-.2-.3-.3-.5-.3l-1.4.3c-.2 0-.4.2-.4.5 0 .6-.1 1.6-1.5 1.9-.8.2-1.7-.3-2.1-1.1-.1-.2-.3-.3-.5-.3l-1.4.3c-.2 0-.4.2-.4.5 0 .6-.2 1.8-1.4 2-1.3.3-1.9-.7-2.1-1.3-.1-.2-.3-.3-.5-.3l-2 .4c-.5.1-.9.6-.7 1.1l10.6 48.9 7.3-.1 27.1-4.7-10.9-51.3c-.1-.5-.6-.9-1.1-.7l-2 .4c-.2.1-.4.3-.4.5.1.6 0 1.7-1.5 2z"/><path fill="#E9E7E7" d="M35.953 47c-.4-1.9.8-3.7 2.7-4.1l22.5-4.7c1.9-.4 3.7.8 4.1 2.7l9.5 45.8-16.3 2.4-13.7.2-8.8-42.3z"/><path fill="#fff" d="M38.053 46.9c-.2-.9.4-1.8 1.3-2l24.3-5c1.9-.4 3.7.8 4.1 2.7l9.5 45.8-10.1 1.3-20.3-.3-8.8-42.5z"/><path stroke="#2B3148" d="m44.753 89.3-8.9-43c-.3-1.3.6-2.6 1.9-2.9l24.3-5c1.3-.3 2.6.6 2.9 1.9l9.6 46.6"/><path fill="#2B3148" d="m69.953 88.1-.7-.8-1 .1.5-.8-.3-.9 1 .2.7-.6.1 1 .8.5-.9.3-.2 1zm-4.9 1-.7-.8-1 .1.5-.8-.3-.9 1 .2.7-.6.1 1 .8.5-.9.3-.2 1zm-4.8-47.9-.3 1-.9.3.8.5.1 1 .8-.7.9.3-.3-.9.5-.8-1 .1-.6-.8zm-4.9 1-.3 1-.9.3.8.5.1 1 .8-.7.9.3-.3-.9.5-.8-1 .1-.6-.8zm-5 1-.2 1-.9.3.8.5.1 1 .7-.6 1 .3-.3-.9.5-.8-1 .1-.7-.9zm-4.9 1-.2 1-.9.3.8.5.1 1 .7-.6 1 .3-.3-.9.5-.8-1 .1-.7-.9zm-5 1.1-.2 1-.9.3.8.5.1 1 .7-.6 1 .3-.3-.9.5-.8-1 .1-.7-.9z"/><path stroke="#2B3148" d="m65.953 45.5-17.7 3.6m-11.3 2.4 9.3-1.9-9.3 1.9z"/><path fill="#EEF5DB" d="m44.653 58.6 14.7-3.1c.5-.1 1.1.2 1.2.8l1.5 7c.1.5-.2 1.1-.8 1.2l-14.7 3.1c-.5.1-1.1-.2-1.2-.8l-1.5-7c-.1-.5.3-1.1.8-1.2zm3.1 13.9 14.7-3.1c.5-.1 1.1.2 1.2.8l.5 2.1c.1.5-.2 1.1-.8 1.2l-14.7 3.1c-.5.1-1.1-.2-1.2-.8l-.5-2.1c-.1-.6.2-1.1.8-1.2z"/><path fill="#EA2D45" d="M98.253 12.3c-2.2 0-2.7-1.6-2.8-2.5 0-.4-.4-.6-.7-.6h-2.1c-.4 0-.7.3-.7.6-.1.9-.6 2.3-2.8 2.3-1.9 0-2.5-1.5-2.7-2.4-.1-.3-.4-.5-.7-.5h-2.2c-.4 0-.6.3-.7.6-.2 1.3-1.3 2.3-2.8 2.3-1.3 0-2.5-1-2.7-2.3-.1-.4-.4-.6-.7-.6h-2.1c-.3 0-.6.2-.7.6-.2.8-.7 2.2-2.8 2.2-1.3 0-2.4-1-2.7-2.3-.2-.3-.5-.5-.8-.5h-2.2c-.3 0-.6.2-.7.6-.2.9-.8 2.5-2.7 2.5-2.1 0-2.6-1.6-2.7-2.5-.1-.4-.4-.6-.8-.6h-3.1c-.8 0-1.4.6-1.4 1.4v78.6l52.3.1V10.6c0-.8-.6-1.4-1.4-1.4h-3.1c-.4 0-.7.3-.7.6-.1.9-.6 2.5-2.8 2.5z"/><path fill="#FDD9C4" d="M58.753 22.1c0-2.8 2.2-5 5-5h33c2.8 0 5 2.2 5 5v67h-43v-67z"/><path fill="#fff" d="M60.753 22.6c0-1.7 1.3-3 3-3h35c1.7 0 3 1.3 3 3v66.5h-41V22.6z"/><path fill="#EA2D45" d="M101.25 82.1h-42v7h42v-7z"/><path stroke="#2B3148" d="M58.853 89.3V21.1c0-1.9 1.6-3.5 3.5-3.5h35.5c1.9 0 3.5 1.6 3.5 3.5v68.2"/><path fill="#2B3148" d="m94.553 89.6-.7-1.3-1.4-.2 1-1-.2-1.4 1.3.6 1.2-.6-.2 1.4 1 1-1.4.2-.6 1.3zm-7.2 0-.7-1.3-1.4-.2 1-1-.2-1.4 1.3.6 1.2-.6-.2 1.4 1 1-1.4.2-.6 1.3zm-7.3 0-.6-1.3-1.4-.2 1-1-.2-1.4 1.2.6 1.3-.6-.2 1.4 1 1-1.4.2-.7 1.3zm-7.2 0-.6-1.3-1.4-.2 1-1-.2-1.4 1.2.6 1.3-.6-.2 1.4 1 1-1.4.2-.7 1.3zm-7.2 0-.6-1.3-1.4-.2 1-1-.2-1.4 1.2.6 1.3-.6-.2 1.4 1 1-1.4.2-.7 1.3z"/><path stroke="#2B3148" d="M58.853 82.2h42.5"/><path fill="#2B3148" d="m94.553 21-.7 1.3-1.4.2 1 1-.2 1.4 1.3-.7 1.2.7-.2-1.4 1-1-1.4-.2-.6-1.3zm-7.2 0-.7 1.3-1.4.2 1 1-.2 1.4 1.3-.7 1.2.7-.2-1.4 1-1-1.4-.2-.6-1.3zm-7.3 0-.6 1.3-1.4.2 1 1-.2 1.4 1.2-.7 1.3.7-.2-1.4 1-1-1.4-.2-.7-1.3zm-7.2 0-.6 1.3-1.4.2 1 1-.2 1.4 1.2-.7 1.3.7-.2-1.4 1-1-1.4-.2-.7-1.3zm-7.2 0-.6 1.3-1.4.2 1 1-.2 1.4 1.2-.7 1.3.7-.2-1.4 1-1-1.4-.2-.7-1.3z"/><path stroke="#2B3148" d="M101.35 28.7h-37.1m-5.4 0h3.9-3.9z"/><path fill="#F79A75" d="M107.85 31.1c6.2 3.4 10.9 9.4 12.3 16.9 2.6 13.3-6 26.3-19.4 28.9-13.3 2.6-26.3-6-28.9-19.4-2.6-13.3 6-26.3 19.4-28.9 1.6-.4 3.1-.5 4.6-.5"/><path fill="#F79A75" d="M98.053 77.5c14.1-1.4 24.5-14 23.1-28.1s-14-24.5-28.1-23.1c-14.1 1.4-24.5 14-23.1 28.1 1.3 14.2 13.9 24.5 28.1 23.1z"/><path fill="#FEF8E8" d="M98.553 77.1c13.6-1.3 23.6-13.3 22.3-26.7s-13.4-23.2-27.1-21.9c-13.6 1.3-23.6 13.3-22.3 26.7 1.4 13.5 13.5 23.3 27.1 21.9z"/><path stroke="#2B3148" d="M84.953 78.8c-8.8-3.2-15.9-10.7-17.9-20.6-.6-2.6-.6-5.2-.5-7.7.2-2.9 1-5.8 2.2-8.5m29.608 38.072c-2.835.403-5.628.208-8.208-.173m9.8-53.399c1.2.2 2.5.5 3.6.9M119.25 68l-2.5-1.7"/><path fill="#747B95" d="M140.75 82.4c-.9 1.3-2.7 1.7-4 .8l-17-11.3c-1.3-.9-1.7-2.7-.8-4s2.7-1.7 4-.8l16.9 11.3c1.5.9 1.8 2.7.9 4z"/><path fill="#2B3148" d="M140.75 82.1c-.9 1.3-1.9 1.6-3.1.7l-16.4-11.1c-2-1.6-1.6-2.7-.8-4 .4-.6 1.8-.6 2.8.1l16 10.3c1.4.9 2.4 2.7 1.5 4z"/><path stroke="#2B3148" d="M140.75 82.4c-.9 1.3-2.7 1.7-4 .8l-17-11.3c-1.3-.9-1.7-2.7-.8-4s2.7-1.7 4-.8l16.9 11.3c1.5.9 1.8 2.7.9 4zm-33-53.4c6.5 3.6 11.5 9.9 13 17.8 2.8 14-6.4 27.8-20.4 30.5-14 2.8-27.8-6.4-30.5-20.4-2.8-14 6.4-27.8 20.4-30.5 1.7-.4 3.2-.5 4.8-.5"/><path stroke="#2B3148" d="M90.253 58.4c0-3 2.4-5.4 5.4-5.4s5.4 2.4 5.4 5.4"/><path fill="#2B3148" d="M87.953 47.7c0 1.4-1.2 2.5-2.5 2.5-1.3-.1-2.4-1.2-2.4-2.5s1.2-2.5 2.5-2.5c1.4-.1 2.4 1.1 2.4 2.5zm20.397 0c0 1.4-1.2 2.5-2.5 2.5s-2.5-1.2-2.5-2.5 1.2-2.5 2.5-2.5c1.4-.1 2.5 1.1 2.5 2.5z"/><path stroke="#323B59" d="M12.552 89.607H164m-163 0h7.4"/></svg>